<svg width="81" height="81" viewBox="0 0 81 81" fill="none" xmlns="http://www.w3.org/2000/svg">
<path d="M10.5 10.5H70.5V70.5H10.5V10.5ZM65.5833 56.19C65.1467 53.4533 63.3633 51.1533 58.0767 49.0067C56.2367 48.1433 54.1933 47.5467 53.58 46.16C53.3533 45.3333 53.32 44.8867 53.4667 44.3967C53.8433 42.7833 55.7567 42.3 57.2567 42.7467C58.2333 43.0467 59.1333 43.7967 59.6967 45C62.28 43.31 62.28 43.31 64.0833 42.1867C63.4067 41.14 63.07 40.6833 62.62 40.2333C61.0433 38.4733 58.9433 37.5733 55.5333 37.65L53.7733 37.8733C52.0833 38.2867 50.47 39.19 49.4967 40.3867C46.6467 43.6133 47.47 49.2367 50.92 51.5667C54.33 54.1167 59.3233 54.6767 59.96 57.0767C60.56 60.0033 57.7867 60.94 55.0433 60.6033C53.02 60.15 51.8933 59.14 50.6567 57.2633L46.0833 59.89C46.6067 61.0867 47.2067 61.6133 48.1067 62.6633C52.4567 67.05 63.3333 66.8267 65.2833 60.15C65.3533 59.9267 65.8833 58.39 65.47 56.0267L65.5833 56.19ZM43.1267 38.0767H37.5067C37.5067 42.92 37.4833 47.7367 37.4833 52.59C37.4833 55.67 37.64 58.4967 37.1367 59.3667C36.3133 61.09 34.1833 60.87 33.22 60.5633C32.23 60.0767 31.7267 59.4 31.1433 58.4267C30.9867 58.1667 30.87 57.94 30.8267 57.94L26.2667 60.7533C27.03 62.33 28.1433 63.6833 29.58 64.5433C31.7167 65.82 34.5867 66.2333 37.5933 65.56C39.5533 64.9933 41.2433 63.83 42.12 62.03C43.4 59.7067 43.1267 56.8533 43.1167 53.6667C43.1433 48.53 43.1167 43.39 43.1167 38.2167L43.1267 38.0767Z" fill="#ADFBF7"></path>
</svg>
