<svg width="79" height="79" viewBox="0 0 79 79" fill="none" xmlns="http://www.w3.org/2000/svg">
<path d="M39.5 42.8476C42.7039 42.8476 45.3012 40.2503 45.3012 37.0464C45.3012 33.8424 42.7039 31.2451 39.5 31.2451C36.296 31.2451 33.6987 33.8424 33.6987 37.0464C33.6987 40.2503 36.296 42.8476 39.5 42.8476Z" fill="#ADFBF7"/>
<path d="M23.2563 48.5806L21.9725 48.2523C12.437 45.8441 6.96729 41.7491 6.96729 37.0333C6.96729 32.3143 12.4403 28.2226 21.9725 25.8143L23.2563 25.4893L23.617 26.7601C24.5808 30.0871 25.8156 33.3295 27.309 36.4548L27.5853 37.0333L27.309 37.6118C25.814 40.7416 24.5758 43.9851 23.617 47.3131L23.2563 48.5806ZM21.381 28.7718C14.1368 30.8128 9.68753 33.9263 9.68753 37.0333C9.68753 40.1338 14.1335 43.2506 21.381 45.2883C22.2683 42.4673 23.3408 39.7081 24.5823 37.0333C23.3318 34.3541 22.2623 31.5941 21.381 28.7718ZM55.74 48.5806L55.3825 47.3066C54.4162 43.9789 53.1804 40.7355 51.6873 37.6086L51.411 37.0333L51.6873 36.4516C53.1823 33.3283 54.414 30.0816 55.3825 26.7536L55.74 25.4861L57.0238 25.8111C66.5625 28.2193 72.029 32.3111 72.029 37.0333C72.029 41.7523 66.5593 45.8441 57.0238 48.2523L55.74 48.5806ZM54.4075 37.0333C55.7075 39.8478 56.7898 42.6168 57.6153 45.2883C64.8628 43.2506 69.312 40.1338 69.312 37.0333C69.312 33.9263 64.866 30.8161 57.6153 28.7718C56.7289 31.5932 55.6574 34.3531 54.4075 37.0333Z" fill="#ADFBF7"/>
<path d="M21.3616 28.7587L21.0041 27.4912C18.3196 18.0402 19.1321 11.2705 23.2369 8.911C27.2506 6.58725 33.7084 9.3335 40.4716 16.2722L41.3946 17.2212L40.4716 18.167C38.0695 20.6652 35.8739 23.3542 33.9066 26.2075L33.5394 26.734L32.9024 26.786C29.443 27.0577 26.0116 27.6109 22.6421 28.4402L21.3616 28.7587ZM26.5031 10.7895C25.7751 10.7895 25.1316 10.9487 24.5889 11.2607C21.8979 12.811 21.4234 18.2092 23.2759 25.4957C26.1716 24.8555 29.0934 24.3972 32.0379 24.1405C33.7426 21.7227 35.6022 19.4179 37.6051 17.2407C33.3704 13.123 29.3729 10.7895 26.5031 10.7895ZM52.4934 65.9875C48.6324 65.9875 43.6729 63.0755 38.5249 57.791L37.6051 56.8452L38.5249 55.9027C40.9274 53.4005 43.124 50.7083 45.0931 47.8525L45.4571 47.3325L46.0876 47.2707C49.5482 47.0039 52.9809 46.4528 56.3511 45.623L57.6349 45.298L57.9956 46.5687C60.6671 56.0132 59.8579 62.7927 55.7596 65.1522C54.7646 65.7163 53.6371 66.0046 52.4934 65.9875ZM41.3946 56.8225C45.6261 60.9402 49.6269 63.277 52.4934 63.277C53.2246 63.277 53.8681 63.1145 54.4076 62.8057C57.1019 61.2522 57.5796 55.8442 55.7206 48.5577C52.8281 49.2012 49.9031 49.6627 46.9521 49.9195C45.2547 52.3411 43.3981 54.6472 41.3946 56.8225Z" fill="#ADFBF7"/>
<path d="M57.6351 28.7587L56.3514 28.437C52.9814 27.6051 49.5486 27.0518 46.0879 26.7827L45.4574 26.7275L45.0934 26.201C43.127 23.3461 40.9302 20.657 38.5251 18.1605L37.6054 17.2147L38.5251 16.2722C45.2851 9.33671 51.7396 6.59046 55.7599 8.91096C59.8614 11.2737 60.6771 18.0435 57.9959 27.4912L57.6351 28.7587ZM46.9524 24.1405C50.0529 24.4167 52.9909 24.8815 55.7209 25.4957C57.5766 18.2092 57.1021 12.811 54.4079 11.2575C51.7299 9.70721 46.6891 12.0797 41.3949 17.2407C43.3969 19.4182 45.2559 21.7192 46.9524 24.1405ZM26.5034 65.9875C25.3598 66.0038 24.2325 65.7155 23.2371 65.1522C19.1324 62.7927 18.3199 56.0165 21.0011 46.5687L21.3521 45.298L22.6359 45.623C25.7689 46.4127 29.2204 46.9685 32.8994 47.2707L33.5299 47.3325L33.8971 47.8525C35.8601 50.706 38.0571 53.4002 40.4621 55.9027L41.3851 56.8452L40.4621 57.791C35.3174 63.0787 30.3579 65.9875 26.5034 65.9875ZM23.2761 48.561C21.4236 55.8475 21.8981 61.2555 24.5891 62.809C27.2704 64.3365 32.2949 61.9802 37.6054 56.8225C35.6032 54.6446 33.7436 52.3399 32.0381 49.9227C29.0907 49.662 26.1637 49.2071 23.2761 48.561Z" fill="#ADFBF7"/>
<path d="M39.5 50.2673C37.2673 50.2673 34.976 50.1731 32.675 49.9813L32.038 49.9261L31.6708 49.3996C30.3732 47.5337 29.1524 45.6157 28.0113 43.6503C26.8786 41.6796 25.8258 39.6641 24.8555 37.6086L24.5825 37.0333L24.8555 36.4516C25.8273 34.3976 26.877 32.3826 28.0113 30.4131C29.139 28.4761 30.3708 26.5391 31.6708 24.6606L32.038 24.1406L32.675 24.0821C37.2149 23.7018 41.7786 23.7018 46.3185 24.0821L46.949 24.1438L47.3163 24.6638C49.9156 28.3973 52.1985 32.3413 54.1413 36.4548L54.411 37.0366L54.1413 37.6118C52.2039 41.7281 49.9207 45.6726 47.3163 49.4028L46.949 49.9293L46.3185 49.9846C44.024 50.1698 41.7295 50.2673 39.5 50.2673ZM33.5395 47.3293C37.5533 47.6316 41.4468 47.6316 45.4573 47.3293C47.6962 44.0507 49.6864 40.6091 51.4113 37.0333C49.6925 33.4543 47.702 30.0122 45.4573 26.7373C41.4906 26.4318 37.5062 26.4318 33.5395 26.7373C31.2929 30.011 29.3023 33.4532 27.5855 37.0333C29.3141 40.6072 31.3042 44.0485 33.5395 47.3293Z" fill="#ADFBF7"/>
</svg>
