<svg width="91" height="91" viewBox="0 0 91 91" fill="none" xmlns="http://www.w3.org/2000/svg">
<path d="M59.3813 58.9565C60.6643 58.8313 61.849 58.214 62.6867 57.2342C63.5244 56.2544 63.9501 54.9882 63.8744 53.7013C63.8152 52.3796 63.2515 51.1309 62.2992 50.2125C61.3469 49.294 60.0786 48.7758 58.7557 48.7645H58.5737C57.2165 48.8129 55.934 49.3979 55.0077 50.391C54.0814 51.3841 53.5871 52.7042 53.6331 54.0615C53.7241 55.4985 54.3118 56.6663 55.1157 57.5157C51.9799 63.6165 47.2669 68.1096 40.1234 71.8785C35.3232 74.3924 30.2499 75.3365 25.3169 74.6616C21.1878 74.0815 17.9611 72.2349 15.9781 69.2736C13.0206 64.7805 12.7476 59.9385 15.2159 55.0928C16.7214 52.2018 18.8725 49.6965 21.5025 47.7711C20.9614 46.2677 20.5417 44.7233 20.2475 43.1528C6.95391 52.6699 8.31132 65.6829 12.3457 71.833C15.3562 76.3223 21.5025 79.1926 28.2327 79.1926C30.03 79.1926 31.9182 79.0599 33.7572 78.6087C45.4242 76.364 54.2663 69.3646 59.3396 59.0437L59.3813 58.9565Z" fill="#ADFBF7"/>
<path d="M75.4051 47.7332C68.4512 39.5659 58.2174 35.0804 46.5467 35.0804H45.0187C44.2603 33.4196 42.5124 32.3845 40.5331 32.3845H40.3966C37.5756 32.3845 35.3727 34.8112 35.4637 37.636C35.5509 40.3281 37.841 42.5727 40.5824 42.5727H40.8061C41.7765 42.536 42.7157 42.2203 43.5112 41.6635C44.3068 41.1067 44.9249 40.3324 45.2917 39.4332H46.9562C53.8722 39.4332 60.4204 41.4504 66.3923 45.4013C70.965 48.4043 74.2486 52.3552 76.0876 57.0683C77.699 60.932 77.6118 64.7009 75.9549 67.848C73.3955 72.7847 69.0844 75.3858 63.3893 75.3858C59.7986 75.3858 56.2951 74.2635 54.4978 73.4558C53.4248 74.3469 51.6237 75.8294 50.3194 76.7281C54.2703 78.5215 58.2667 79.5566 62.1229 79.5566C70.8778 79.5566 77.3767 74.6199 79.8527 69.8613C82.541 64.4696 82.3211 55.4037 75.4506 47.646L75.4051 47.7332Z" fill="#ADFBF7"/>
<path d="M28.9949 60.5719C29.0821 63.264 31.3685 65.5086 34.1136 65.5086H34.2956C34.9702 65.4932 35.6348 65.343 36.2504 65.0668C36.8661 64.7906 37.4202 64.394 37.8802 63.9004C38.3402 63.4068 38.6969 62.8262 38.9291 62.1927C39.1613 61.5592 39.2644 60.8856 39.2324 60.2117C39.2324 57.5196 36.8967 55.2787 34.1591 55.2787H33.9771C33.7951 55.2787 33.5297 55.2787 33.3022 55.3621C29.5788 49.0793 28.0053 42.3415 28.593 35.0805C28.9494 29.6015 30.7428 24.843 33.9771 20.8921C36.6692 17.5251 41.7425 15.8643 45.2005 15.7733C54.892 15.5913 58.9339 27.6716 59.2448 32.4718L63.7341 33.8141C62.699 19.0948 53.5459 11.375 44.791 11.375C36.5782 11.375 28.9949 17.3431 25.9426 26.1018C21.7642 37.7688 24.5056 48.9883 29.6243 57.967C29.1769 58.5509 28.9077 59.5823 28.9949 60.5719Z" fill="#ADFBF7"/>
</svg>
